<?xml version="1.0" encoding="utf-8"?>
<!-- Svg Vector Icons : http://www.onlinewebfonts.com/icon -->
<!DOCTYPE svg PUBLIC "-//W3C//DTD SVG 1.1//EN" "http://www.w3.org/Graphics/SVG/1.1/DTD/svg11.dtd">
<svg version="1.1" xmlns="http://www.w3.org/2000/svg" xmlns:xlink="http://www.w3.org/1999/xlink" x="0px" y="0px" viewBox="0 0 256 256" enable-background="new 0 0 256 256" xml:space="preserve">
<metadata> Svg Vector Icons : http://www.onlinewebfonts.com/icon </metadata>
<g><g><path fill="#000000" d="M234.8,163.7h-10c-0.9-3.3-2.2-6.4-3.9-9.3l7.1-7.1c1.3-1.3,1.3-3.4,0-4.7l-11.4-11.4c-0.7-0.7-1.5-1-2.3-1c-0.9,0-1.7,0.3-2.3,1l-7.1,7.1c-2.9-1.6-6.1-2.9-9.3-3.9v-10c0-1.8-1.5-3.3-3.3-3.3h-16.1c-1.8,0-3.3,1.5-3.3,3.3v10c-3.3,0.9-6.4,2.2-9.3,3.9l-7.1-7c-0.7-0.7-1.5-1-2.3-1c-0.8,0-1.7,0.3-2.3,1l-11.4,11.4c-1.3,1.3-1.3,3.4,0,4.7l7.1,7.1c-1.6,2.9-2.9,6.1-3.9,9.3h-10c-1.8,0-3.3,1.5-3.3,3.3v16.1c0,1.8,1.5,3.3,3.3,3.3h10c0.9,3.3,2.2,6.4,3.9,9.3l-7.1,7.1c-1.3,1.3-1.3,3.4,0,4.7l11.4,11.4c0.7,0.7,1.5,1,2.3,1c0.8,0,1.7-0.3,2.3-1l7.1-7.1c2.9,1.6,6.1,2.9,9.3,3.9v10c0,1.8,1.5,3.3,3.3,3.3h16.1c1.8,0,3.3-1.5,3.3-3.3v-10c3.3-0.9,6.4-2.2,9.3-3.9l7.1,7.1c0.7,0.7,1.5,1,2.3,1c0.9,0,1.7-0.3,2.3-1l11.4-11.4c1.3-1.3,1.3-3.4,0-4.7l-7.1-7.1c1.6-2.9,2.9-6.1,3.9-9.3h10c1.8,0,3.3-1.5,3.3-3.3v-16.1C238.2,165.2,236.7,163.7,234.8,163.7L234.8,163.7z M212.6,183c-0.7,2.3-1.5,4.5-2.7,6.5l-4.1,7.2l-7.2,4c-2,1.1-4.2,2-6.5,2.7l-7.9,2.2l-7.9-2.2c-2.3-0.7-4.5-1.5-6.5-2.7l-7.2-4l-4.1-7.2c-1.1-2-2-4.2-2.7-6.5l-2.2-7.9l2.2-7.9c0.7-2.3,1.5-4.5,2.7-6.5l4-7.2l7.2-4.1c2-1.1,4.2-2,6.5-2.7l7.9-2.2l7.9,2.2c2.3,0.7,4.5,1.5,6.5,2.7l7.2,4.1l4.1,7.2c1.1,2,2,4.2,2.7,6.5l2.2,7.9L212.6,183L212.6,183z"/><path fill="#000000" d="M184.2,154.9c-11.2,0-20.3,9.1-20.3,20.3c0,11.2,9.1,20.3,20.3,20.3c11.2,0,20.3-9.1,20.3-20.3C204.4,163.9,195.4,154.9,184.2,154.9L184.2,154.9z M184.2,182.5c-4.1,0-7.5-3.3-7.5-7.5s3.3-7.5,7.5-7.5c4.1,0,7.5,3.3,7.5,7.5C191.6,179.2,188.3,182.5,184.2,182.5L184.2,182.5z"/><path fill="#000000" d="M81.1,61.1c0,4.9-4,8.9-8.9,8.9c-4.9,0-8.9-4-8.9-8.9c0-4.9,4-8.9,8.9-8.9C77.1,52.1,81.1,56.1,81.1,61.1L81.1,61.1z"/><path fill="#000000" d="M81.1,93.8c0,4.9-4,8.9-8.9,8.9c-4.9,0-8.9-4-8.9-8.9c0-4.9,4-8.9,8.9-8.9C77.1,84.8,81.1,88.8,81.1,93.8L81.1,93.8z"/><path fill="#000000" d="M63.2,126.4c0,2.3,1,4.6,2.6,6.3c1.7,1.7,4,2.6,6.3,2.6s4.6-1,6.3-2.6c1.7-1.6,2.6-4,2.6-6.3c0-2.3-1-4.6-2.6-6.3c-1.7-1.7-4-2.6-6.3-2.6s-4.6,1-6.3,2.6C64.2,121.8,63.2,124.1,63.2,126.4L63.2,126.4z"/><path fill="#000000" d="M161.7,69.1h-59.8c-4.4,0-8-3.6-8-8c0-4.4,3.6-8,8-8h59.8c4.5,0,8,3.6,8,8C169.8,65.5,166.1,69.1,161.7,69.1L161.7,69.1z"/><path fill="#000000" d="M161.7,101.8h-59.8c-4.4,0-8-3.6-8-8.1c0-4.5,3.6-8.1,8-8.1h59.8c4.5,0,8,3.6,8,8.1C169.8,98.2,166.1,101.8,161.7,101.8L161.7,101.8z"/><path fill="#000000" d="M63.2,157.1c0,2.3,1,4.6,2.6,6.3c1.7,1.7,4,2.6,6.3,2.6s4.6-1,6.3-2.6c1.7-1.7,2.6-4,2.6-6.3s-1-4.6-2.6-6.3c-1.7-1.6-4-2.6-6.3-2.6s-4.6,1-6.3,2.6C64.2,152.5,63.2,154.8,63.2,157.1L63.2,157.1z"/><path fill="#000000" d="M180.7,236c-26.4,0-49-15.6-58.1-38.8H44V41.7c0-8.2,6.6-14.8,14.8-14.8h145.7c-3.9,6.2-6.4,15.6-6.5,29.1c0,0.3,0,0.6,0,0.9v57.8c3.4,1,6.7,2.3,9.9,3.8V56.8H246c0-29.1-10.7-39.8-24-39.8H58.8c-13.7,0-24.7,11.1-24.7,24.7v155.5h0H10c0,36.3,13.4,41.8,30,41.8h18.8H164h19.1c5.2,0,10-1.6,13.9-4.3C191.8,236.1,186.3,236,180.7,236z"/><path fill="#000000" d="M153.8,118.4h-51.9c-4.4,0-8,3.6-8,8c0,4.4,3.6,8,8,8h31.3C138.8,127.8,145.8,122.2,153.8,118.4z"/><path fill="#000000" d="M123.8,149.1h-21.9c-4.4,0-8,3.6-8,8c0,4.5,3.6,8,8,8H119C119.9,159.5,121.5,154.1,123.8,149.1z"/></g></g>
</svg>